<svg xmlns="http://www.w3.org/2000/svg" viewBox="0 0 1170.187 213.505"><defs><style>.cls-1{fill:#2b87ff;}.cls-2{fill:#ffb90a;}.cls-3{fill:#71ce67;}</style></defs><title>Logo</title><g id="Layer_1" data-name="Layer 1"><path class="cls-1" d="M11.23,164.013a11.28,11.28,0,0,1-3.489-8.693q0-10.278,13.07-10.278H69.793a20.467,20.467,0,0,0,8.374-2.157,25.109,25.109,0,0,0,7.488-5.584,25.446,25.446,0,0,0,5.329-8.311,27.594,27.594,0,0,0,1.9-10.343A24.96,24.96,0,0,0,85.02,99.994a23.506,23.506,0,0,0-7.8-5.012A24.04,24.04,0,0,0,68.4,93.268H47.967a52.448,52.448,0,0,1-18.654-3.3,46.269,46.269,0,0,1-15.227-9.264A42.328,42.328,0,0,1,3.68,66.3,43.834,43.834,0,0,1,0,48.347,48.947,48.947,0,0,1,3.744,29.5,46.089,46.089,0,0,1,14.086,13.959,47.744,47.744,0,0,1,47.967,0H93.015q6.215,0,9.707,2.855a9.828,9.828,0,0,1,3.49,8.059q0,5.585-3.49,8.628t-9.707,3.046H43.4A22.03,22.03,0,0,0,28.932,29.44a23,23,0,0,0-4.821,7.8,26.5,26.5,0,0,0-1.777,9.581,24.475,24.475,0,0,0,1.84,9.581,25.221,25.221,0,0,0,5.139,7.8,21.412,21.412,0,0,0,6.979,5.076,19.215,19.215,0,0,0,7.995,1.777H65.859a54.041,54.041,0,0,1,19.035,3.362,48.745,48.745,0,0,1,15.862,9.581,44.105,44.105,0,0,1,14.592,33.373A49.458,49.458,0,0,1,100.882,152.4,52.071,52.071,0,0,1,85.02,163.315a46.166,46.166,0,0,1-18.908,3.933h-45.3Q14.72,167.248,11.23,164.013Z"/><path class="cls-1" d="M152.321,164.711a48.988,48.988,0,0,1-15.862-11.167,50.554,50.554,0,0,1-10.088-15.672,47.554,47.554,0,0,1-3.616-18.209V93.9a47.413,47.413,0,0,1,3.616-18.019,50.367,50.367,0,0,1,10.088-15.735,49.033,49.033,0,0,1,15.862-11.167,48.209,48.209,0,0,1,19.8-4.061q15.861,0,28.044,7.614A42.771,42.771,0,0,1,216.4,71.57q.887,2.159,1.332,3.616a10.669,10.669,0,0,1,.444,3.109,10.274,10.274,0,0,1-3.236,7.613,11.369,11.369,0,0,1-8.311,3.173,10.415,10.415,0,0,1-4.949-1.206,7.805,7.805,0,0,1-3.426-3.489q-3.807-8.755-9.962-12.69t-16.052-3.933q-12.943,0-20.3,9.009a28.261,28.261,0,0,0-4.949,9.073,32.843,32.843,0,0,0-1.65,10.342v21.065a33.413,33.413,0,0,0,1.65,10.405,28.1,28.1,0,0,0,4.949,9.137q7.357,9.264,20.3,9.263,9.9,0,15.989-3.934t10.025-12.69a7.7,7.7,0,0,1,3.426-3.616,10.711,10.711,0,0,1,5.076-1.2,11.041,11.041,0,0,1,8.248,3.236,10.935,10.935,0,0,1,2.728,10.786q-.445,1.46-1.332,3.616a41.1,41.1,0,0,1-16.243,18.907q-12.183,7.614-28.044,7.614A48.208,48.208,0,0,1,152.321,164.711Z"/><path class="cls-1" d="M239.609,163.95a10.931,10.931,0,0,1-3.363-8.122V56.469a11.351,11.351,0,0,1,.952-4.505,12.227,12.227,0,0,1,2.6-3.87,11.112,11.112,0,0,1,3.68-2.411,11.585,11.585,0,0,1,4.442-.889,9.942,9.942,0,0,1,7.8,3.363,12.085,12.085,0,0,1,2.982,8.312V94.03h54.818V56.469a12.072,12.072,0,0,1,2.983-8.312,9.933,9.933,0,0,1,7.8-3.363,11.487,11.487,0,0,1,11.675,11.675v99.359a11.1,11.1,0,0,1-3.426,8.122,11.75,11.75,0,0,1-8.249,3.3,10.109,10.109,0,0,1-7.8-3.235,11.608,11.608,0,0,1-2.983-8.185v-38.7H258.707v38.7a11.469,11.469,0,0,1-3.046,8.185,10.317,10.317,0,0,1-7.867,3.235A11.242,11.242,0,0,1,239.609,163.95Z"/><path class="cls-1" d="M368.137,163.95a11.529,11.529,0,0,1-3.045-8.122V57.991a11.5,11.5,0,0,1,3.045-7.867,9.865,9.865,0,0,1,7.614-3.553h61.037a10.242,10.242,0,0,1,7.423,3.045,10.5,10.5,0,0,1-7.423,18.02l-49.236.254V96.314h28.933a9.572,9.572,0,0,1,7.1,2.982,10.342,10.342,0,0,1-.19,14.593,10.5,10.5,0,0,1-7.55,2.982h-28.3V145.8H436.28a10.491,10.491,0,0,1,7.613,3.109,10.18,10.18,0,0,1,3.173,7.55,10.318,10.318,0,0,1-3.109,7.8,10.66,10.66,0,0,1-7.677,2.982H376.005A10.217,10.217,0,0,1,368.137,163.95Z"/><path class="cls-1" d="M468.558,164.013a10.534,10.534,0,0,1-3.3-7.8V57.864a10.524,10.524,0,0,1,3.236-7.93,11.011,11.011,0,0,1,7.931-3.109h30.455a66.858,66.858,0,0,1,19.1,2.728,51.186,51.186,0,0,1,16.306,8.058,40.773,40.773,0,0,1,11.928,14.657,45.525,45.525,0,0,1,4.314,20.239V121.82a43.355,43.355,0,0,1-4.124,19.161,42,42,0,0,1-11.484,14.466A51.6,51.6,0,0,1,526.55,164.2a62.6,62.6,0,0,1-19.669,3.045H476.426A10.846,10.846,0,0,1,468.558,164.013Zm35.785-18.336q15.1,0,23.221-6.092,10.023-7.485,10.025-24.237V99.105q0-14.085-7.232-21.825-8.5-8.882-26.014-8.883H487.719v77.28Z"/><path class="cls-2" d="M615.088,164.647A57.737,57.737,0,0,1,584.7,136.032a55.533,55.533,0,0,1-5.266-20.81,7.239,7.239,0,0,1-.126-1.9V56.342a11.037,11.037,0,0,1,3.425-8.185,11.211,11.211,0,0,1,8.121-3.363,10.029,10.029,0,0,1,7.8,3.3,11.847,11.847,0,0,1,2.981,8.248v55.834a32.46,32.46,0,0,0,2.729,13.2,35.806,35.806,0,0,0,7.55,11.04,33.85,33.85,0,0,0,11.1,7.423,35.518,35.518,0,0,0,26.838-.063,34.149,34.149,0,0,0,11.04-7.36,34.5,34.5,0,0,0,7.36-10.913,36.6,36.6,0,0,0,2.918-13.2V56.342a12.015,12.015,0,0,1,2.983-8.375,10.018,10.018,0,0,1,7.8-3.3,11.149,11.149,0,0,1,8.185,3.363,11.3,11.3,0,0,1,3.363,8.312V112.81a3.651,3.651,0,0,1-.127,1.4,55.827,55.827,0,0,1-5.076,21.065A59.1,59.1,0,0,1,676,152.782a56.709,56.709,0,0,1-39.592,15.989A56.124,56.124,0,0,1,615.088,164.647Z"/><path class="cls-3" d="M716.269,164.076a10.577,10.577,0,0,1-3.425-8.122V56.215a11.565,11.565,0,0,1,1.522-5.837.112.112,0,0,0,.127-.127l1.4-1.777.38-.38a9.912,9.912,0,0,1,2.285-1.65l.507-.381,1.015-.38a9.581,9.581,0,0,1,4.316-.889h55.832a11.049,11.049,0,0,1,8.123,3.3,10.847,10.847,0,0,1,3.171,7.994,10.843,10.843,0,0,1-3.171,7.995,11.043,11.043,0,0,1-8.123,3.3H735.3v34.9H761.19a10.764,10.764,0,0,1,7.742,3.045,9.983,9.983,0,0,1,3.173,7.487,10.833,10.833,0,0,1-10.915,10.913H735.3v32.231a10.944,10.944,0,0,1-3.234,8.059,10.639,10.639,0,0,1-7.806,3.235A10.838,10.838,0,0,1,716.269,164.076Z"/><path class="cls-3" d="M807.935,163.442a10.844,10.844,0,0,1-2.919-7.614V56.469a11.481,11.481,0,0,1,11.548-11.548,10.218,10.218,0,0,1,7.866,3.3,11.69,11.69,0,0,1,3.047,8.248v88.446h50.378a11.7,11.7,0,0,1,8.247,3.045,10.225,10.225,0,0,1,3.3,7.868,10.939,10.939,0,0,1-3.363,8.122,11.248,11.248,0,0,1-8.184,3.3H815.167A11.884,11.884,0,0,1,807.935,163.442Z"/><path class="cls-3" d="M933.165,164.013A62.068,62.068,0,0,1,913.3,150.625a61.641,61.641,0,0,1-13.451-67.7,62.725,62.725,0,0,1,33.312-33.374A62.112,62.112,0,0,1,981,49.616a62.189,62.189,0,0,1,19.858,13.324,62.916,62.916,0,0,1,13.26,19.923,62.035,62.035,0,0,1-13.26,67.762A62.11,62.11,0,0,1,981,163.95a62.124,62.124,0,0,1-47.839.063Zm39.209-20.748A40.127,40.127,0,0,0,993.44,122.01a40.047,40.047,0,0,0,0-30.328A38.745,38.745,0,0,0,985,79.056a39.589,39.589,0,0,0-12.627-8.5,40.232,40.232,0,0,0-30.708,0,39.719,39.719,0,0,0-21.128,21.128,39.269,39.269,0,0,0,0,30.328,39.522,39.522,0,0,0,8.5,12.626,38.594,38.594,0,0,0,27.918,11.675A39.027,39.027,0,0,0,972.374,143.265Z"/><path class="cls-3" d="M1050.589,165.535a41.8,41.8,0,0,1-25.569-38.512V57.738a10.621,10.621,0,0,1,3.3-7.995,11.114,11.114,0,0,1,7.994-3.172,10.608,10.608,0,0,1,7.741,3.3,10.749,10.749,0,0,1,3.3,7.868l.381,68.9c0,.253-.086.973-.253,2.157a19.494,19.494,0,0,0,6.6,12.055,18.913,18.913,0,0,0,12.943,4.949,18.2,18.2,0,0,0,14.086-6.345,21.584,21.584,0,0,0,5.329-14.719V57.864a10.935,10.935,0,0,1,3.236-8.057,11.23,11.23,0,0,1,19.1,8.057v68.27a5.079,5.079,0,0,1-.126,1.523,18.909,18.909,0,0,0,1.84,6.979,18.271,18.271,0,0,0,4.251,5.711,18.547,18.547,0,0,0,13.069,5.2,19.338,19.338,0,0,0,7.742-1.587,20.576,20.576,0,0,0,6.471-4.378,20.1,20.1,0,0,0,4.314-6.345,18.782,18.782,0,0,0,1.523-7.486V57.738a10.732,10.732,0,0,1,3.236-7.995,11.5,11.5,0,0,1,15.861,0,10.725,10.725,0,0,1,3.236,7.995v69.285a39.016,39.016,0,0,1-3.362,16.052,44.235,44.235,0,0,1-9.2,13.387,43.3,43.3,0,0,1-13.7,9.073,41.69,41.69,0,0,1-16.243,3.236,40.718,40.718,0,0,1-16.814-3.489,41.207,41.207,0,0,1-13.641-9.835,42.607,42.607,0,0,1-13.768,9.835,40.728,40.728,0,0,1-16.814,3.489A40.3,40.3,0,0,1,1050.589,165.535Z"/></g><g id="Layer_2" data-name="Layer 2"><path class="cls-1" d="M18.185,194.989H570.6v-10H18.185a10,10,0,0,0,0,20H570.6v-10Z"/><path class="cls-3" d="M1170.187,194.989l-43.517-18.515,3.587,8.515h10.337a9.958,9.958,0,0,1,9.914,10h0a9.957,9.957,0,0,1-9.914,10h-10.337l-3.587,8.516Z"/><path class="cls-3" d="M1150.508,194.989h-16.039l-4.212,10h10.337A9.957,9.957,0,0,0,1150.508,194.989Z"/><path class="cls-3" d="M1150.508,194.989a9.958,9.958,0,0,0-9.914-10h-10.337l4.212,10Z"/><rect class="cls-2" x="570.6" y="194.989" width="131.7" height="10"/><polygon class="cls-3" points="1134.469 194.989 702.3 194.989 702.3 204.989 1130.257 204.989 1134.469 194.989"/><polygon class="cls-3" points="1134.469 194.989 1130.257 184.989 702.3 184.989 702.3 194.989 1134.469 194.989"/><rect class="cls-2" x="570.6" y="184.989" width="131.7" height="10"/></g></svg>